<?xml version="1.0" encoding="UTF-8"?>
<!DOCTYPE svg PUBLIC "-//W3C//DTD SVG 1.1//EN" "http://www.w3.org/Graphics/SVG/1.1/DTD/svg11.dtd">
<!-- Creator: CorelDRAW X7 -->
<svg xmlns="http://www.w3.org/2000/svg" xml:space="preserve" width="50mm" height="50mm" version="1.1" style="shape-rendering:geometricPrecision; text-rendering:geometricPrecision; image-rendering:optimizeQuality; fill-rule:evenodd; clip-rule:evenodd"
viewBox="0 0 5000 5000"
 xmlns:xlink="http://www.w3.org/1999/xlink">
 <defs>
  <style type="text/css">
   <![CDATA[
    .fil0 {fill:#283D4D}
    .fil1 {fill:#818D96}
    .fil2 {fill:#283D4D;fill-rule:nonzero}
   ]]>
  </style>
 </defs>
 <g id="Layer_x0020_1">
  <metadata id="CorelCorpID_0Corel-Layer"/>
  <g id="_1585864676240">
   <g>
    <path class="fil0" d="M2661 1523l0 940 -303 0 0 -736 -899 -455 0 537 -323 0 0 -687 323 -179 1202 580zm0 1423l0 449 -303 0 0 -449 303 0z"/>
    <polygon class="fil0" points="3830,1809 3519,1809 3519,1024 2626,591 2626,1255 2081,969 2081,583 2626,239 3837,850 "/>
    <polygon class="fil1" points="1153,2488 1455,2488 1455,2643 3519,2643 3519,2488 3822,2488 3822,2921 3519,2921 3519,2790 1455,2790 1455,2921 1153,2921 "/>
    <path class="fil1" d="M1766 1797l323 155 0 511 -323 0 0 -167 -907 0c-220,0 -400,180 -400,400l0 22c0,209 170,379 378,379l929 0 0 -151 323 0 0 433 -323 0 0 -4 -940 0c-355,0 -645,-290 -645,-645l0 -39c0,-375 307,-682 682,-682l903 0 0 -212z"/>
    <polygon class="fil1" points="2919,1057 3241,1253 3241,2014 2919,2014 "/>
    <path class="fil0" d="M2911 2014l0 449 323 0 0 -167 907 0c220,0 400,180 400,400l0 22c0,209 -170,379 -378,379l-929 0 0 -151 -323 0 0 433 323 0 0 -4 940 0c355,0 645,-290 645,-645l0 -39c0,-375 -306,-682 -682,-682l-1226 5z"/>
   </g>
   <path class="fil2" d="M582 4188l0 170c-21,-24 -42,-41 -64,-52 -21,-11 -44,-17 -68,-17 -45,0 -81,16 -109,46 -28,31 -41,71 -41,120 0,46 14,84 42,114 28,31 64,46 108,46 24,0 47,-6 68,-17 22,-11 43,-28 64,-52l0 170c-24,13 -49,22 -73,28 -25,6 -50,9 -75,9 -31,0 -60,-4 -86,-12 -27,-7 -51,-18 -73,-33 -43,-29 -76,-65 -98,-109 -23,-43 -34,-92 -34,-147 0,-44 7,-84 22,-120 14,-35 35,-68 64,-97 27,-28 58,-49 92,-63 34,-14 72,-21 113,-21 25,0 50,3 75,9 24,6 49,15 73,28z"/>
   <path id="1" class="fil2" d="M1335 4453c0,41 -8,80 -23,116 -15,36 -37,68 -66,96 -29,29 -63,50 -100,66 -38,15 -77,22 -117,22 -41,0 -80,-7 -118,-22 -37,-16 -70,-37 -98,-66 -30,-28 -52,-60 -68,-97 -15,-36 -23,-74 -23,-115 0,-41 8,-80 23,-116 16,-36 38,-68 68,-97 28,-28 61,-50 98,-65 38,-15 77,-23 118,-23 41,0 80,8 117,23 38,15 71,37 100,65 29,28 51,61 66,97 15,36 23,75 23,116zm-306 168c43,0 79,-16 107,-48 28,-31 43,-72 43,-120 0,-48 -15,-88 -43,-120 -29,-32 -65,-49 -107,-49 -44,0 -79,17 -108,48 -28,32 -42,73 -42,121 0,49 14,89 42,121 28,31 64,47 108,47z"/>
   <path id="2" class="fil2" d="M2166 4738l-146 0 -34 -248c-2,-17 -4,-37 -6,-58 -2,-21 -4,-45 -6,-70 -3,24 -10,54 -21,91 -2,7 -4,13 -5,17l-78 268 -104 0 -78 -268c-1,-4 -3,-10 -5,-17 -11,-37 -18,-67 -21,-91 -2,22 -4,44 -6,65 -2,21 -4,42 -7,63l-34 248 -145 0 88 -573 155 0 86 296c1,2 2,5 4,10 8,26 13,49 15,68 1,-11 3,-22 6,-34 3,-13 7,-28 12,-45l87 -295 155 0 88 573z"/>
   <path id="3" class="fil2" d="M2322 4165l156 0 0 279c0,41 1,70 3,88 2,18 6,33 11,45 6,14 16,26 31,33 15,8 33,12 54,12 22,0 40,-4 55,-12 14,-7 25,-19 31,-33 5,-12 9,-27 11,-45 2,-18 3,-47 3,-88l0 -39 0 -240 155 0 0 303c0,63 -4,109 -11,139 -8,30 -20,56 -38,77 -20,23 -47,40 -81,52 -34,12 -76,17 -124,17 -50,0 -91,-5 -125,-17 -34,-12 -61,-29 -81,-52 -18,-21 -30,-47 -38,-77 -8,-30 -12,-76 -12,-139l0 -59 0 -244z"/>
   <polygon id="4" class="fil2" points="3035,4738 3035,4165 3103,4165 3103,4673 3319,4673 3319,4738 "/>
   <polygon id="5" class="fil2" points="3472,4738 3472,4165 3541,4165 3541,4738 "/>
   <polygon id="6" class="fil2" points="3751,4738 3751,4143 4170,4600 4170,4165 4235,4165 4235,4761 3816,4308 3816,4738 "/>
   <polygon id="7" class="fil2" points="4443,4738 4443,4165 4511,4165 4511,4420 4751,4165 4832,4165 4587,4423 4857,4738 4769,4738 4511,4430 4511,4738 "/>
  </g>
 </g>
</svg>
